<?xml version="1.0" encoding="UTF-8" standalone="no"?>
<!-- Created with Inkscape (http://www.inkscape.org/) -->

<svg
   xmlns:dc="http://purl.org/dc/elements/1.1/"
   xmlns:cc="http://creativecommons.org/ns#"
   xmlns:rdf="http://www.w3.org/1999/02/22-rdf-syntax-ns#"
   xmlns:svg="http://www.w3.org/2000/svg"
   xmlns="http://www.w3.org/2000/svg"
   xmlns:xlink="http://www.w3.org/1999/xlink"
   xmlns:sodipodi="http://sodipodi.sourceforge.net/DTD/sodipodi-0.dtd"
   xmlns:inkscape="http://www.inkscape.org/namespaces/inkscape"
   width="793.70081"
   height="1122.5197"
   viewBox="0 0 210 297"
   version="1.1"
   id="svg8"
   sodipodi:docname="Elixir_Logo.svg"
   inkscape:version="0.92.4 5da689c313, 2019-01-14">
  <defs
     id="defs2">
    <linearGradient
       inkscape:collect="always"
       id="linearGradient850">
      <stop
         style="stop-color:#8900fc;stop-opacity:1;"
         offset="0"
         id="stop846" />
      <stop
         style="stop-color:#f20d71;stop-opacity:0.99074072"
         offset="1"
         id="stop848" />
    </linearGradient>
    <linearGradient
       inkscape:collect="always"
       xlink:href="#linearGradient850"
       id="linearGradient854"
       gradientUnits="userSpaceOnUse"
       x1="198.44763"
       y1="297"
       x2="198.44763"
       y2="-14.69371" />
    <linearGradient
       inkscape:collect="always"
       xlink:href="#linearGradient850"
       id="linearGradient907"
       gradientUnits="userSpaceOnUse"
       x1="198.44763"
       y1="297"
       x2="198.44763"
       y2="-99.875008"
       gradientTransform="translate(-1342.5714)" />
  </defs>
  <sodipodi:namedview
     id="base"
     pagecolor="#ffffff"
     bordercolor="#666666"
     borderopacity="1.0"
     inkscape:pageopacity="0.0"
     inkscape:pageshadow="2"
     inkscape:zoom="0.35"
     inkscape:cx="427.59218"
     inkscape:cy="857.8209"
     inkscape:document-units="px"
     inkscape:current-layer="layer1"
     showgrid="false"
     showborder="false"
     units="px"
     inkscape:window-width="1600"
     inkscape:window-height="870"
     inkscape:window-x="0"
     inkscape:window-y="30"
     inkscape:window-maximized="1"
     inkscape:snap-page="false"
     inkscape:object-paths="true"
     showguides="true"
     inkscape:guide-bbox="true"
     inkscape:snap-intersection-paths="false"
     inkscape:snap-global="false"
     inkscape:snap-to-guides="false"
     inkscape:snap-nodes="true"
     inkscape:object-nodes="false"
     inkscape:snap-others="false"
     inkscape:snap-bbox="false">
    <sodipodi:guide
       position="198.44763,205.58038"
       orientation="1,0"
       id="guide844"
       inkscape:locked="false" />
  </sodipodi:namedview>
  <metadata
     id="metadata5">
    <rdf:RDF>
      <cc:Work
         rdf:about="">
        <dc:format>image/svg+xml</dc:format>
        <dc:type
           rdf:resource="http://purl.org/dc/dcmitype/StillImage" />
        <dc:title></dc:title>
      </cc:Work>
    </rdf:RDF>
  </metadata>
  <g
     inkscape:label="Layer 1"
     inkscape:groupmode="layer"
     id="layer1">
    <rect
       style="fill:url(#linearGradient854);stroke-width:1.32291651;stroke-linecap:round;stroke-linejoin:round;fill-opacity:1.0"
       id="rect815"
       width="396.875"
       height="396.875"
       x="0"
       y="-99.875008" />
    <path
       style="fill:#ffffff;fill-opacity:1;stroke-width:5;stroke-linecap:round;stroke-linejoin:round"
       d="M 0 -377.48047 L 0 -17.484375 C 316.51215 123.07487 631.47411 -0.98739123 754.28516 -57.480469 C 836.02622 -95.081357 967.34836 -159.80244 1133.793 -163.87891 A 171.42857 171.42857 0 0 0 982.73438 6.1191406 A 171.42857 171.42857 0 0 0 1154.1641 177.54688 A 171.42857 171.42857 0 0 0 1325.5918 6.1191406 A 171.42857 171.42857 0 0 0 1177.3672 -163.5332 C 1274.9288 -159.58913 1383.3457 -133.79962 1500 -70.251953 L 1500 -377.48047 L 0 -377.48047 z M 611.30664 388.97656 A 108.57143 108.57143 0 0 0 502.73438 497.54688 A 108.57143 108.57143 0 0 0 611.30664 606.11914 A 108.57143 108.57143 0 0 0 719.87695 497.54688 A 108.57143 108.57143 0 0 0 611.30664 388.97656 z M 1034.1641 783.26172 A 39.999998 39.999998 0 0 0 994.16406 823.26172 A 39.999998 39.999998 0 0 0 1034.1641 863.26172 A 39.999998 39.999998 0 0 0 1074.1621 823.26172 A 39.999998 39.999998 0 0 0 1034.1641 783.26172 z "
       id="path868"
       transform="scale(0.26458333)" />
    <rect
       y="-99.875008"
       x="-1342.5714"
       height="396.875"
       width="396.875"
       id="rect893"
       style="fill:url(#linearGradient907);fill-opacity:1;stroke-width:1.32291651;stroke-linecap:round;stroke-linejoin:round" />
    <rect
       style="fill:#090909;fill-opacity:1;stroke-width:1.32291651;stroke-linecap:round;stroke-linejoin:round"
       id="rect895"
       width="396.875"
       height="396.875"
       x="-1342.5714"
       y="-99.875008" />
    <path
       sodipodi:nodetypes="cssccc"
       inkscape:connector-curvature="0"
       id="path897"
       d="m -1383.3929,-28.815485 c 96.006,72.571429 202.5953,30.994048 240.3929,13.607143 37.7976,-17.386906 115.6607,-56.696426 213.17856,6.0476194 84.55459,54.4033326 74.08334,-86.1785704 74.08334,-86.1785704 l -126.24406,-34.017857 -427.86904,10.58333"
       style="fill:#00ff00;fill-opacity:1;stroke-width:1.32291663;stroke-linecap:round;stroke-linejoin:round" />
    <path
       inkscape:connector-curvature="0"
       id="path899"
       d="m -991.84197,1.6189893 a 45.357143,45.357143 0 0 1 -45.35713,45.3571437 45.357143,45.357143 0 0 1 -45.3572,-45.3571437 45.357143,45.357143 0 0 1 45.3572,-45.3571433 45.357143,45.357143 0 0 1 45.35713,45.3571433 z"
       style="fill:#ff0000;fill-opacity:1;stroke-width:1.32291663;stroke-linecap:round;stroke-linejoin:round" />
    <path
       style="fill:#ff0000;fill-opacity:1;stroke-width:1.32291663;stroke-linecap:round;stroke-linejoin:round"
       d="m -1152.1039,131.6428 a 28.726191,28.726191 0 0 1 -28.7262,28.72619 28.726191,28.726191 0 0 1 -28.7262,-28.72619 28.726191,28.726191 0 0 1 28.7262,-28.72619 28.726191,28.726191 0 0 1 28.7262,28.72619 z"
       id="path901"
       inkscape:connector-curvature="0" />
    <path
       inkscape:connector-curvature="0"
       id="path903"
       d="m -1058.3658,217.82137 a 10.583333,10.583333 0 0 1 -10.5833,10.58333 10.583333,10.583333 0 0 1 -10.5833,-10.58333 10.583333,10.583333 0 0 1 10.5833,-10.58334 10.583333,10.583333 0 0 1 10.5833,10.58334 z"
       style="fill:#ff0000;fill-opacity:1;stroke-width:1.32291663;stroke-linecap:round;stroke-linejoin:round" />
  </g>
</svg>
